<svg xmlns="http://www.w3.org/2000/svg" viewBox="0 0 452 175" width="452" height="175"><style>tspan { white-space:pre }.shp0 { fill: #000000 } .shp1 { fill: #f8dc3b } .shp2 { fill: #2e2e2c } </style><g ><path class="shp0" d="M194.8 22.5C167.3 28.5 153.3 47 157.9 71.2C160.9 86.7 172.3 96.4 197 104.5C211.2 109.2 216 112.6 216 118.2C216 125.7 209.4 129.3 195.5 129.3C184.6 129.3 176.2 127.3 165.7 122.2C161.5 120.1 157.7 118.6 157.5 118.9C157.2 119.1 157 126.5 157 135.2L157 151L160.3 152.4C172.3 157.3 197.1 159.3 213 156.6C231 153.5 244.6 144.7 250.8 132.1C253.3 127 253.5 125.5 253.5 115C253.5 104.2 253.3 103.1 250.5 97.6C245.4 87.6 236.1 81.3 215.5 74.1C199.9 68.6 194.8 64.1 196.4 57.5C197.8 51.8 204 49 215.2 49C224.2 49 231.2 50.6 239 54.4C242.6 56.1 245.8 57.6 246.3 57.8C246.7 58 247 50.9 247 42.1L247 26.1L242.9 25C227.9 20.9 206.8 19.8 194.8 22.5Z" /><path class="shp0" d="M8 39.5L8 53L16.5 53L25 53L25 92L25 131L16.5 131L8 131L8 145L8 159L38.8 158.8L69.5 158.5L69.8 144.7L70.1 131L61.5 131L53 131L53 92L53 53L61.5 53L70.1 53L69.8 39.7L69.5 26.5L38.8 26.2L8 26L8 39.5Z" /><path class="shp0" d="M78 39.5L78 53L86.5 53L95 53L95 92L95 131L86.5 131L78 131L78 145L78 159L109 159L140 159L140 145L140 131L131.5 131L123 131L123 92L123 53L131.5 53L140 53L140 39.5L140 26L109 26L78 26L78 39.5Z" /><path class="shp1" d="M286 15L430 15L430 159L286 159L286 15Z" /><path class="shp2" d="M389.5 80.9C381.8 84.4 377.2 92.9 378.6 100.8C380.1 109.2 384.1 113.3 396.2 118.9C409.2 124.9 411.7 128.4 406.5 133.5C402 138.1 391.6 136.4 387.3 130.4L385.4 127.8L379.7 131.2L374 134.7L376.5 138.1C386.8 151.9 412.3 152.4 420.5 138.8C421.9 136.4 422.5 133.7 422.5 128.8C422.5 123 422.1 121.6 419.5 117.8C417 114.3 414.6 112.5 406 108.3C392.2 101.4 389.3 97.7 394 93C396.9 90.1 401.3 90.5 405.3 93.9L408.6 96.9L413.3 93.8C415.9 92.1 418 90.2 418 89.6C418 87.7 411.8 82.2 407.8 80.6C402.8 78.5 394.4 78.6 389.5 80.9Z" /><path class="shp2" d="M352 106.3C352 135.9 352 136 344.7 136C341.8 136 340.6 135.3 338.4 132.6L335.7 129.3L330.4 132.4C327.4 134.1 325 135.9 325 136.4C325 138.5 330.4 144.2 334.3 146.2C337.4 147.8 340.4 148.4 345.5 148.4C355 148.5 360.5 145.6 364 138.5C366.4 133.6 366.5 133 366.8 106.7L367.2 80L359.6 80L352 80L352 106.3Z" /></g></svg>